# xmcd
#
# Track frame offsets: 
#        150
#        16352
#        32357
#        50450
#        68760
#        89590
#        107237
#        121965
#        140182
#        158260
#        174245
#        192260
#        209097
#        230422
#        248042
#        266332
#        285232
#        304462
#        320922
#        336497
#
# Disc length: 4664 seconds
#
# Revision: 2
# Processed by: cddbd v1.4PL0 Copyright (c) Steve Scherf et al.
# Submitted via: ExactAudioCopy v0.90a11
#
DISCID=23123614
DTITLE=Trevor Nelson - Rhythm Nation - Disc 2
DYEAR=1900
DGENRE=
TTITLE0=Another Level - Bomb Diggy
TTITLE1=Gabrielle - Sunshine
TTITLE2=Eternal - What'cha Gonna Do
TTITLE3=TQ - Bye Bye Baby
TTITLE4=Beverly Knight - Sista Sista
TTITLE5=Ginuwine - What's So Different
TTITLE6=So Plush, Ja Rule - Damn
TTITLE7=Dru Hill - These Are The Times
TTITLE8=Tyrese - Sweet Lady
TTITLE9=Honeyz - Love Of A Lifetime
TTITLE10=Amel Larrieux ft Puerto Rock - Get Up
TTITLE11=Hill St Soul - For Your Love
TTITLE12=DMX - Slippin'
TTITLE13=Whitehead Brothers - Forget I Was A 'G'
TTITLE14=Method Man ft D'Angelo - Break-Ups 2 Make-Ups
TTITLE15=Tracie Spencer - It's All About You (Not About Me)
TTITLE16=Joe - Don't Wanna Be A Player
TTITLE17=Marc Dorsey - All I Do
TTITLE18=Sparkle - Time To Move On
TTITLE19=Imajin - Flava
EXTD=
EXTT0=
EXTT1=
EXTT2=
EXTT3=
EXTT4=
EXTT5=
EXTT6=
EXTT7=
EXTT8=
EXTT9=
EXTT10=
EXTT11=
EXTT12=
EXTT13=
EXTT14=
EXTT15=
EXTT16=
EXTT17=
EXTT18=
EXTT19=
PLAYORDER=
